<?xml version="1.0" standalone="no"?><svg xmlns="http://www.w3.org/2000/svg" viewBox="0 0 1440 320"><path fill="#8257E5" fill-opacity="1" d="M0,320L7.1,288C14.1,256,28,192,42,176C56.5,160,71,192,85,208C98.8,224,113,224,127,213.3C141.2,203,155,181,169,197.3C183.5,213,198,267,212,256C225.9,245,240,171,254,122.7C268.2,75,282,53,296,42.7C310.6,32,325,32,339,80C352.9,128,367,224,381,245.3C395.3,267,409,213,424,202.7C437.6,192,452,224,466,202.7C480,181,494,107,508,96C522.4,85,536,139,551,176C564.7,213,579,235,593,208C607.1,181,621,107,635,80C649.4,53,664,75,678,117.3C691.8,160,706,224,720,234.7C734.1,245,748,203,762,181.3C776.5,160,791,160,805,160C818.8,160,833,160,847,165.3C861.2,171,875,181,889,170.7C903.5,160,918,128,932,144C945.9,160,960,224,974,250.7C988.2,277,1002,267,1016,224C1030.6,181,1045,107,1059,80C1072.9,53,1087,75,1101,85.3C1115.3,96,1129,96,1144,117.3C1157.6,139,1172,181,1186,170.7C1200,160,1214,96,1228,112C1242.4,128,1256,224,1271,218.7C1284.7,213,1299,107,1313,58.7C1327.1,11,1341,21,1355,48C1369.4,75,1384,117,1398,128C1411.8,139,1426,117,1433,106.7L1440,96L1440,320L1432.9,320C1425.9,320,1412,320,1398,320C1383.5,320,1369,320,1355,320C1341.2,320,1327,320,1313,320C1298.8,320,1285,320,1271,320C1256.5,320,1242,320,1228,320C1214.1,320,1200,320,1186,320C1171.8,320,1158,320,1144,320C1129.4,320,1115,320,1101,320C1087.1,320,1073,320,1059,320C1044.7,320,1031,320,1016,320C1002.4,320,988,320,974,320C960,320,946,320,932,320C917.6,320,904,320,889,320C875.3,320,861,320,847,320C832.9,320,819,320,805,320C790.6,320,776,320,762,320C748.2,320,734,320,720,320C705.9,320,692,320,678,320C663.5,320,649,320,635,320C621.2,320,607,320,593,320C578.8,320,565,320,551,320C536.5,320,522,320,508,320C494.1,320,480,320,466,320C451.8,320,438,320,424,320C409.4,320,395,320,381,320C367.1,320,353,320,339,320C324.7,320,311,320,296,320C282.4,320,268,320,254,320C240,320,226,320,212,320C197.6,320,184,320,169,320C155.3,320,141,320,127,320C112.9,320,99,320,85,320C70.6,320,56,320,42,320C28.2,320,14,320,7,320L0,320Z"></path></svg>